<?xml version="1.0" encoding="UTF-8" standalone="no"?>
<!DOCTYPE svg PUBLIC "-//W3C//DTD SVG 1.1//EN" "http://www.w3.org/Graphics/SVG/1.1/DTD/svg11.dtd">
<svg width="640.00" height="470.00" viewBox="0.00 0.00 640.00 470.00" xmlns="http://www.w3.org/2000/svg" xmlns:xlink="http://www.w3.org/1999/xlink">
<g stroke-linecap="round" transform="translate(-79.00, -77.00)" id="Layer_1">
<path d="M90.50,85.00 Q399.00,85.00 707.50,85.00 Q711.00,85.00 711.00,88.50 Q711.00,312.00 711.00,535.50 Q711.00,539.00 707.50,539.00 Q399.00,539.00 90.50,539.00 Q87.00,539.00 87.00,535.50 Q87.00,312.00 87.00,88.50 Q87.00,85.00 90.50,85.00 Z" fill="none" stroke="rgb(255, 255, 255)" stroke-width="17.00" stroke-opacity="1.00" stroke-linejoin="round"/>
<path d="M130.50,153.00 Q210.50,153.00 290.50,153.00 Q294.00,153.00 294.00,156.50 Q294.00,345.50 294.00,534.50 Q294.00,538.00 290.50,538.00 Q210.50,538.00 130.50,538.00 Q127.00,538.00 127.00,534.50 Q127.00,345.50 127.00,156.50 Q127.00,153.00 130.50,153.00 Z" fill="none" stroke="rgb(255, 255, 255)" stroke-width="17.00" stroke-opacity="1.00" stroke-linejoin="round"/>
<path d="M505.50,153.00 Q585.50,153.00 665.50,153.00 Q669.00,153.00 669.00,156.50 Q669.00,345.50 669.00,534.50 Q669.00,538.00 665.50,538.00 Q585.50,538.00 505.50,538.00 Q502.00,538.00 502.00,534.50 Q502.00,345.50 502.00,156.50 Q502.00,153.00 505.50,153.00 Z" fill="none" stroke="rgb(255, 255, 255)" stroke-width="17.00" stroke-opacity="1.00" stroke-linejoin="round"/>
<path d="M338.50,258.00 Q399.00,258.00 459.50,258.00 Q463.00,258.00 463.00,261.50 Q463.00,397.00 463.00,532.50 Q463.00,536.00 459.50,536.00 Q399.00,536.00 338.50,536.00 Q335.00,536.00 335.00,532.50 Q335.00,397.00 335.00,261.50 Q335.00,258.00 338.50,258.00 Z" fill="none" stroke="rgb(255, 255, 255)" stroke-width="17.00" stroke-opacity="1.00" stroke-linejoin="round"/>
<path d="M166.00,259.00 L166.00,438.00" fill="none" stroke="rgb(255, 255, 255)" stroke-width="20.00" stroke-opacity="1.00" stroke-linejoin="round"/>
<path d="M175.00,370.00 L245.00,261.00" fill="none" stroke="rgb(255, 255, 255)" stroke-width="20.00" stroke-opacity="1.00" stroke-linejoin="round"/>
<path d="M173.00,370.00 L257.00,438.00" fill="none" stroke="rgb(255, 255, 255)" stroke-width="20.00" stroke-opacity="1.00" stroke-linejoin="round"/>
<path d="M168.00,244.00" fill="none" stroke="rgb(255, 255, 255)" stroke-width="40.00" stroke-opacity="1.00" stroke-linejoin="miter"/>
<path d="M248.00,249.00" fill="none" stroke="rgb(255, 255, 255)" stroke-width="40.00" stroke-opacity="1.00" stroke-linejoin="miter"/>
<path d="M258.00,445.00" fill="none" stroke="rgb(255, 255, 255)" stroke-width="40.00" stroke-opacity="1.00" stroke-linejoin="miter"/>
<path d="M166.00,453.00" fill="none" stroke="rgb(255, 255, 255)" stroke-width="40.00" stroke-opacity="1.00" stroke-linejoin="miter"/>
<path d="M369.29,460.73 C369.29,460.73 367.43,334.30 367.43,334.30" fill="none" stroke="rgb(255, 255, 255)" stroke-width="18.59" stroke-opacity="1.00" stroke-linejoin="miter"/>
<path d="M377.66,341.74 C389.10,348.60 410.92,361.68 416.25,366.08 C419.71,368.97 425.64,375.19 428.11,378.53 C430.55,381.87 434.43,389.00 435.87,392.79 C437.29,396.58 439.12,404.62 439.53,408.86 C439.92,413.14 439.70,421.98 439.13,426.54 C438.56,430.82 436.72,438.22 435.44,441.34 C434.13,444.44 430.68,449.66 428.79,451.43 C425.76,454.18 418.91,457.17 414.69,457.62 C410.38,458.02 404.19,457.13 395.84,455.51 C388.85,454.16 380.69,452.59 379.52,452.36" fill="none" stroke="rgb(255, 255, 255)" stroke-width="18.59" stroke-opacity="1.00" stroke-linejoin="miter"/>
<path d="M372.08,327.79" fill="none" stroke="rgb(255, 255, 255)" stroke-width="37.18" stroke-opacity="1.00" stroke-linejoin="miter"/>
<path d="M369.29,465.38" fill="none" stroke="rgb(255, 255, 255)" stroke-width="37.18" stroke-opacity="1.00" stroke-linejoin="miter"/>
<path d="M535.85,254.17 L591.86,430.05" fill="none" stroke="rgb(255, 255, 255)" stroke-width="19.65" stroke-opacity="1.00" stroke-linejoin="round"/>
<path d="M590.87,430.05 L638.04,252.21" fill="none" stroke="rgb(255, 255, 255)" stroke-width="19.65" stroke-opacity="1.00" stroke-linejoin="round"/>
<path d="M534.87,248.28" fill="none" stroke="rgb(255, 255, 255)" stroke-width="39.30" stroke-opacity="1.00" stroke-linejoin="miter"/>
<path d="M589.89,443.81" fill="none" stroke="rgb(255, 255, 255)" stroke-width="39.30" stroke-opacity="1.00" stroke-linejoin="miter"/>
<path d="M636.07,246.31" fill="none" stroke="rgb(255, 255, 255)" stroke-width="39.30" stroke-opacity="1.00" stroke-linejoin="miter"/>
</g>
</svg>
